<?xml version="1.0" encoding="UTF-8"?>
<svg id="a" data-name="Layer 1" xmlns="http://www.w3.org/2000/svg" xmlns:xlink="http://www.w3.org/1999/xlink" viewBox="0 0 790.25 128.95">
  <defs>
    <linearGradient id="b" x1="-6.17" y1="105.26" x2="135.12" y2="23.69" gradientUnits="userSpaceOnUse">
      <stop offset="0" stop-color="#00b8e9"/>
      <stop offset=".02" stop-color="#00b9e2"/>
      <stop offset=".18" stop-color="#00c1b9"/>
      <stop offset=".33" stop-color="#00c896"/>
      <stop offset=".49" stop-color="#00cd7c"/>
      <stop offset=".66" stop-color="#00d169"/>
      <stop offset=".82" stop-color="#00d35d"/>
      <stop offset="1" stop-color="#00d45a"/>
    </linearGradient>
  </defs>
  <g>
    <polygon points="276.21 4 241.15 4 197.82 57.76 197.82 4 166.24 4 166.24 125.18 197.82 125.18 197.82 91.02 212.53 73.12 242.61 125.18 278.42 125.18 235.1 53.2 276.21 4" fill="#00c964"/>
    <path d="m364.98,9.6c-8.88-4.96-19.43-7.44-31.67-7.44s-22.83,2.48-31.76,7.44c-8.94,4.96-15.79,12.09-20.56,21.39-4.77,9.3-7.16,20.5-7.16,33.6s2.39,24.3,7.16,33.6c4.77,9.3,11.63,16.43,20.56,21.39,8.93,4.96,19.52,7.44,31.76,7.44s22.79-2.48,31.67-7.44c8.87-4.96,15.7-12.09,20.47-21.39,4.77-9.3,7.16-20.5,7.16-33.6s-2.39-24.3-7.16-33.6c-4.77-9.3-11.6-16.43-20.47-21.39Zm-7.8,75.73c-2.08,5.63-5.11,9.85-9.09,12.67-3.98,2.82-8.9,4.22-14.78,4.22s-10.83-1.41-14.87-4.22c-4.04-2.81-7.1-7.04-9.18-12.67-2.08-5.63-3.12-12.54-3.12-20.75s1.04-15.27,3.12-20.84c2.08-5.57,5.14-9.76,9.18-12.58,4.04-2.81,9-4.22,14.87-4.22s10.8,1.41,14.78,4.22c3.98,2.82,7.01,7.01,9.09,12.58,2.08,5.57,3.12,12.52,3.12,20.84s-1.04,15.12-3.12,20.75Z" fill="#00c964"/>
    <polygon points="487.63 65.87 480.65 91.39 480.28 91.39 473.49 65.69 454.4 4 409.41 4 409.41 125.18 437.5 125.18 437.5 69.54 436.59 32.27 436.95 32.27 466.88 125.18 492.4 125.18 522.33 32.27 522.69 32.27 521.78 69.54 521.78 125.18 549.68 125.18 549.68 4 506.54 4 487.63 65.87" fill="#00c964"/>
    <path d="m651.58,8.77c-6.98-3.18-15.42-4.77-25.34-4.77h-55.63v121.18h31.58v-40.39h24.05c9.91,0,18.36-1.59,25.34-4.77,6.98-3.18,12.3-7.77,15.97-13.77,3.67-6,5.51-13.28,5.51-21.85s-1.84-15.85-5.51-21.85c-3.67-6-9-10.59-15.97-13.77Zm-15.33,48.19c-3.37,2.75-8.35,4.13-14.96,4.13h-19.09V27.68h19.09c6.61,0,11.59,1.38,14.96,4.13,3.37,2.75,5.05,6.95,5.05,12.58s-1.68,9.82-5.05,12.58Z" fill="#00c964"/>
    <path d="m754.08,53.57l-20.38-4.59c-5.39-1.22-9.27-2.72-11.66-4.5-2.39-1.77-3.58-3.95-3.58-6.52,0-2.2.61-4.16,1.84-5.88,1.22-1.71,3.24-3.06,6.06-4.04,2.81-.98,6.49-1.47,11.02-1.47,7.71,0,14.6,1.38,20.65,4.13s11.72,6.88,16.98,12.39l15.24-20.38c-6.37-6.73-13.86-11.84-22.49-15.33-8.63-3.49-18.57-5.23-29.83-5.23s-20.26,1.72-28.09,5.14c-7.83,3.43-13.83,8.11-17.99,14.04-4.16,5.94-6.24,12.7-6.24,20.29,0,6.73,1.53,12.33,4.59,16.8,3.06,4.47,7.25,8.02,12.58,10.65,5.32,2.63,11.41,4.74,18.27,6.33l22.4,4.96c5.14,1.22,8.63,2.72,10.46,4.5,1.84,1.78,2.75,3.95,2.75,6.52,0,2.33-.67,4.35-2.02,6.06-1.35,1.72-3.46,3-6.33,3.86-2.88.86-6.46,1.29-10.74,1.29-5.51,0-10.92-.79-16.25-2.39-5.32-1.59-10.22-3.76-14.69-6.52-4.47-2.75-8.23-5.9-11.29-9.46l-15.24,21.11c4.04,4.29,9,8.08,14.87,11.38,5.88,3.3,12.49,5.85,19.83,7.62s15.05,2.66,23.13,2.66c9.91,0,18.73-1.5,26.44-4.5,7.71-3,13.77-7.46,18.18-13.4,4.41-5.94,6.61-13.19,6.61-21.76s-2.82-16.09-8.45-21.48c-5.63-5.38-14.5-9.48-26.62-12.3Z" fill="#00c964"/>
  </g>
  <g>
    <g>
      <rect x="4" y="4" width="120.95" height="120.95" rx="13.78" ry="13.78" fill="none" stroke="#000" stroke-miterlimit="10" stroke-width="8"/>
      <rect x="29.34" y="31.63" width="26.14" height="24.6" rx="7.73" ry="7.73" fill="none" stroke="#000" stroke-miterlimit="10" stroke-width="8"/>
      <rect x="73.47" y="31.63" width="26.14" height="24.6" rx="7.73" ry="7.73" fill="none" stroke="#000" stroke-miterlimit="10" stroke-width="8"/>
      <rect x="29.34" y="72.72" width="26.14" height="24.6" rx="7.73" ry="7.73" fill="none" stroke="#000" stroke-miterlimit="10" stroke-width="8"/>
      <rect x="73.47" y="72.72" width="26.14" height="24.6" rx="7.73" ry="7.73" fill="none" stroke="#000" stroke-miterlimit="10" stroke-width="8"/>
    </g>
    <g>
      <rect x="4" y="4" width="120.95" height="120.95" rx="13.78" ry="13.78" fill="none" stroke="url(#b)" stroke-width="10"/>
      <rect x="29.34" y="31.63" width="26.14" height="24.6" rx="7.73" ry="7.73" fill="none" stroke="url(#b)" stroke-width="10"/>
      <rect x="73.47" y="31.63" width="26.14" height="24.6" rx="7.73" ry="7.73" fill="none" stroke="url(#b)" stroke-width="10"/>
      <rect x="29.34" y="72.72" width="26.14" height="24.6" rx="7.73" ry="7.73" fill="none" stroke="url(#b)" stroke-width="10"/>
      <rect x="73.47" y="72.72" width="26.14" height="24.6" rx="7.73" ry="7.73" fill="none" stroke="url(#b)" stroke-width="10"/>
    </g>
  </g>
</svg>